<?xml version="1.0" encoding="utf-8"?>
<!-- Generator: Adobe Illustrator 24.2.3, SVG Export Plug-In . SVG Version: 6.00 Build 0)  -->
<svg version="1.1" xmlns="http://www.w3.org/2000/svg" xmlns:xlink="http://www.w3.org/1999/xlink" x="0px" y="0px"
	 viewBox="0 0 1170 595" style="enable-background:new 0 0 1170 595;" xml:space="preserve">
<style type="text/css">
	.st0{display:none;}
	.st1{opacity:0.45;fill:none;stroke:#CF426B;stroke-width:128;stroke-miterlimit:10;}
	.st2{opacity:0.5;fill:none;stroke:#4450A2;stroke-width:5;stroke-miterlimit:10;}
</style>
<g id="Layer_1">
</g>
<g id="nabo">
	<path d="M455.1,242.37l0.35,33.81c0.09,7.71,0.35,12.92,2.25,15.95c1.39,2.25,3.81,3.47,7.63,3.9c0.87,0.09,0.95,0.17,0.95,0.87
		c0,0.61-0.09,0.69-0.95,0.69c-3.81-0.17-8.06-0.26-11.53-0.26c-3.47,0-7.28,0.09-10.75,0.26c-0.78,0-0.87-0.09-0.87-0.69
		c0-0.69,0.09-0.78,0.87-0.87c2.95-0.43,4.94-1.65,6.24-3.81c1.91-3.21,2.43-8.49,2.51-16.04l0.43-33.98c0-0.87,0-1.56,0-2.17
		c0-3.12-1.82-5.37-8.5-5.81c-0.78-0.09-0.87-0.17-0.87-0.78c0-0.69,0.09-0.87,0.87-0.78c3.03,0.17,8.24,0.35,10.84,0.35
		c2.86,0,6.33,0,10.49-0.09c1.99,3.47,4.07,7.19,6.41,10.92l18.46,28.95c2.43,3.9,4.42,7.28,6.5,10.66l-0.09-9.8v-18.98
		c0-8.49-0.35-14.04-2.6-16.99c-1.56-1.99-3.81-3.03-7.37-3.47c-0.78-0.09-0.87-0.17-0.87-0.78c0-0.69,0.09-0.87,0.87-0.78
		c3.03,0.17,8.06,0.35,11.27,0.35c3.38,0,7.8-0.17,10.66-0.35c0.78,0,0.87,0.09,0.87,0.69s-0.09,0.78-0.87,0.87
		c-2.34,0.35-4.16,1.39-5.55,3.29c-2.17,3.12-3.03,8.84-3.12,17.16l-0.35,26.96c-0.09,6.16,0,9.8,0.09,14.74l-6.5,2.77
		c-0.52,0-0.78-0.09-0.95-0.35c-2.51-4.42-5.11-8.76-9.1-15l-26.7-41.43H455.1z M556.27,273.58c-2.77-0.17-6.59-0.26-10.14-0.26
		c-3.47,0-6.59,0.09-10.14,0.26l-1.04,2.95c-2.34,6.59-3.21,10.32-3.21,12.74c0,4.07,1.91,5.98,7.98,6.76
		c0.87,0.09,0.95,0.17,0.95,0.87c0,0.61-0.09,0.69-0.95,0.69c-3.55-0.17-7.98-0.26-11.1-0.26c-2.95,0-6.15,0.09-9.45,0.26
		c-0.78,0-0.87-0.09-0.87-0.69c0-0.69,0.09-0.78,0.87-0.87c2.25-0.35,4.25-1.73,6.07-4.16c1.82-2.51,3.29-5.98,6.67-15.78l7.97-22.8
		c2.6-7.54,4.51-13.26,5.98-18.38l7.89-3.73c0.52,0,0.87,0.26,1.04,0.87c2.08,6.15,4.16,12.14,7.45,21.76l11.62,34.33
		c2.34,6.85,2.77,7.28,8.32,7.89c0.78,0.09,0.87,0.17,0.87,0.87c0,0.61-0.09,0.69-0.87,0.69c-4.07-0.17-7.71-0.26-13.26-0.26
		c-5.29,0-9.88,0.09-13.96,0.26c-0.78,0-0.87-0.09-0.87-0.78c0-0.69,0.09-0.78,0.87-0.78c6.15-0.17,7.11-1.56,7.11-3.12
		c0-1.3-0.26-2.34-1.04-4.77L556.27,273.58z M549.5,253.64c-1.39-4.07-2.17-6.76-3.38-10.75c-1.21,4.16-2.25,7.46-3.47,10.92
		l-5.81,16.82c2.86,0.17,6.24,0.17,9.27,0.17c3.03,0,6.68,0,9.1-0.17L549.5,253.64z M627.17,263.52c14.65,1.3,22.1,7.02,22.1,15.95
		c0,11.27-8.15,18.29-27.65,18.29c-4.25,0-9.54-0.43-13.7-0.43c-3.9,0-10.84,0.09-14.39,0.26c-0.78,0-0.87-0.09-0.87-0.69
		c0-0.69,0.09-0.78,0.87-0.87c7.11-0.43,8.41-1.82,8.41-7.98V242.2c0-6.15-0.95-7.45-8.75-7.97c-0.78-0.09-0.87-0.17-0.87-0.78
		c0-0.69,0.09-0.78,0.87-0.78c3.82,0.17,10.75,0.26,14.82,0.26c3.99,0,8.5-0.35,12.57-0.35c18.72,0,25.05,5.63,25.05,14.65
		c0,7.98-5.29,13.26-18.46,15.69V263.52z M614,262.31c1.3,0.09,2.43,0.09,3.21,0.09c11.01,0,15.26-4.51,15.26-14.56
		c0-9.27-4.07-13-12.83-13c-5.03,0-5.64,1.04-5.64,7.11V262.31z M614,288.31c0,6.07,0.52,7.19,7.2,7.19
		c9.62,0,14.21-5.46,14.21-15.86c0-10.32-4.85-15-17.77-15c-1.21,0-2.34,0-3.64,0.09V288.31z M727.81,264.73
		c0,20.28-14.74,34.41-31.99,34.41s-31.81-13.35-31.81-33.63c0-20.28,14.82-34.33,31.99-34.33
		C713.16,231.19,727.81,244.45,727.81,264.73z M678.66,265.17c0,21.32,6.68,31.99,17.25,31.99c10.57,0,17.25-10.66,17.25-31.99
		c0-21.32-6.76-31.99-17.25-31.99C685.43,233.18,678.66,243.84,678.66,265.17z M511.03,343.47l-7.34,10.69l0.12,0.12
		c0.54-0.65,1.22-1.42,2.05-2.28c0.83-0.87,1.73-1.75,2.72-2.66c0.98-0.9,2.01-1.8,3.09-2.69c1.08-0.89,2.14-1.68,3.18-2.37
		c0.19-0.38,0.4-0.69,0.64-0.92c0.23-0.23,0.69-0.35,1.39-0.35c0.42,0,0.8,0.01,1.13,0.03c0.33,0.02,0.66,0.05,1.01,0.09
		c-0.66,0.66-1.29,1.45-1.91,2.4c-0.62,0.94-0.92,1.97-0.92,3.09c0,0.89,0.22,1.58,0.66,2.08c0.44,0.5,0.99,0.75,1.65,0.75
		c0.58,0,1.15-0.11,1.71-0.35c0.56-0.23,1.09-0.52,1.59-0.87c0.5-0.35,0.98-0.71,1.44-1.1c0.46-0.39,0.87-0.73,1.21-1.04l0.35,0.23
		c-0.39,0.39-0.83,0.8-1.33,1.24c-0.5,0.44-1.04,0.86-1.62,1.24c-0.58,0.39-1.19,0.7-1.85,0.95c-0.66,0.25-1.33,0.38-2.02,0.38
		c-1.23,0-2.22-0.38-2.98-1.13s-1.13-1.8-1.13-3.15c0-0.92,0.21-1.75,0.64-2.48l-0.11-0.12c-1.58,1.08-3.31,2.5-5.2,4.25
		c-1.89,1.75-3.89,3.82-6.01,6.21c-0.77,0.85-1.57,1.96-2.4,3.35c-0.83,1.39-1.55,2.81-2.17,4.28h-3.76
		c2.08-3.31,4.16-6.61,6.24-9.88c2.08-3.27,4.22-6.61,6.41-10H511.03z M549.46,348.38c-0.58,0.96-1.3,2.02-2.17,3.18
		c-0.87,1.16-1.85,2.3-2.95,3.44c-1.1,1.14-2.27,2.23-3.53,3.29c-1.25,1.06-2.55,2-3.9,2.83c-1.35,0.83-2.71,1.48-4.07,1.96
		c-1.37,0.48-2.71,0.72-4.02,0.72c-1.62,0-2.87-0.41-3.76-1.24c-0.89-0.83-1.33-2.01-1.33-3.55c0-1.7,0.51-3.48,1.53-5.35
		c1.02-1.87,2.32-3.59,3.9-5.17c1.58-1.58,3.31-2.89,5.2-3.93c1.89-1.04,3.7-1.56,5.43-1.56c0.96,0,1.71,0.2,2.25,0.61
		c0.54,0.4,0.81,0.99,0.81,1.76c0,0.92-0.5,1.82-1.5,2.69c-1,0.87-2.22,1.66-3.67,2.37c-1.44,0.71-3,1.35-4.65,1.91
		c-1.66,0.56-3.12,0.97-4.39,1.24c-0.42,0.77-0.77,1.64-1.04,2.6c-0.27,0.96-0.4,1.93-0.4,2.89c0,0.46,0.05,0.92,0.14,1.36
		c0.1,0.44,0.25,0.85,0.46,1.21c0.21,0.37,0.5,0.66,0.87,0.9c0.37,0.23,0.82,0.35,1.36,0.35c1.27,0,2.76-0.41,4.48-1.24
		c1.71-0.83,3.46-1.94,5.23-3.32c1.77-1.39,3.47-2.97,5.09-4.74c1.62-1.77,3.01-3.6,4.16-5.49L549.46,348.38z M540.09,345.32
		c0-0.54-0.14-0.94-0.43-1.21c-0.29-0.27-0.65-0.4-1.07-0.4c-0.81,0-1.69,0.32-2.63,0.95c-0.94,0.64-1.88,1.43-2.8,2.37
		c-0.92,0.94-1.76,1.96-2.51,3.03c-0.75,1.08-1.32,2.04-1.71,2.89c0.85-0.15,1.91-0.45,3.18-0.9c1.27-0.44,2.49-0.99,3.67-1.65
		c1.17-0.65,2.19-1.42,3.03-2.28C539.67,347.26,540.09,346.32,540.09,345.32z M573.32,323.36c-3.31,5.12-6.17,9.53-8.58,13.21
		c-2.41,3.68-4.45,6.8-6.13,9.36c-1.68,2.56-3.03,4.65-4.05,6.27c-1.02,1.62-1.8,2.95-2.34,3.99c-0.54,1.04-0.91,1.88-1.1,2.51
		c-0.19,0.64-0.29,1.24-0.29,1.82c0,0.77,0.23,1.4,0.69,1.88c0.46,0.48,1.06,0.72,1.79,0.72c1.39,0,2.88-0.58,4.48-1.73
		c1.6-1.16,3.07-2.56,4.42-4.22c1.35-1.66,2.48-3.37,3.38-5.14c0.9-1.77,1.36-3.29,1.36-4.57c0-0.42-0.1-0.84-0.29-1.24
		c-0.19-0.4-0.29-0.84-0.29-1.3c0-0.54,0.12-0.99,0.38-1.36c0.25-0.37,0.66-0.55,1.24-0.55c0.65,0,1.17,0.35,1.53,1.04
		c0.37,0.69,0.55,1.6,0.55,2.72c0,0.92-0.08,1.77-0.23,2.54c0.35,0.46,0.92,0.91,1.73,1.33c0.81,0.42,1.71,0.64,2.72,0.64
		c1.12,0,2.15-0.29,3.09-0.87c0.94-0.58,1.74-1.29,2.4-2.14l0.4,0.4c-0.62,0.77-1.44,1.49-2.48,2.17c-1.04,0.67-2.2,1.01-3.47,1.01
		c-0.89,0-1.71-0.16-2.49-0.49c-0.77-0.33-1.48-0.76-2.14-1.3c-0.5,1.58-1.34,3.19-2.51,4.83c-1.18,1.64-2.54,3.12-4.1,4.45
		c-1.56,1.33-3.22,2.41-4.97,3.24c-1.75,0.83-3.46,1.24-5.11,1.24c-1.35,0-2.49-0.4-3.44-1.18c-0.94-0.79-1.42-1.92-1.42-3.38
		c0-0.62,0.12-1.3,0.35-2.05c0.23-0.75,0.64-1.69,1.21-2.8c0.58-1.12,1.38-2.5,2.4-4.16c1.02-1.66,2.32-3.71,3.9-6.15
		c1.58-2.45,3.49-5.36,5.72-8.73c2.23-3.37,4.85-7.33,7.86-11.88L573.32,323.36z M611.18,348.73c-0.92,1.04-1.96,1.87-3.12,2.49
		c-1.15,0.62-2.29,0.92-3.41,0.92c-1.08,0-2-0.24-2.77-0.72c-0.77-0.48-1.37-1.05-1.79-1.71h-0.12c-0.38,1.46-1.1,3.02-2.14,4.68
		c-1.04,1.66-2.28,3.18-3.72,4.57c-1.44,1.39-3.04,2.54-4.77,3.47c-1.73,0.92-3.51,1.39-5.32,1.39c-1.66,0-2.91-0.48-3.76-1.44
		c-0.85-0.96-1.27-2.25-1.27-3.87c0-0.85,0.21-1.83,0.64-2.95c0.42-1.12,1.01-2.24,1.76-3.38c0.75-1.14,1.64-2.25,2.66-3.35
		c1.02-1.1,2.13-2.08,3.32-2.95c1.19-0.87,2.46-1.56,3.78-2.08c1.33-0.52,2.67-0.78,4.02-0.78c1.58,0,2.8,0.46,3.67,1.39
		c0.87,0.92,1.34,2.12,1.42,3.58c0.08,0.89,0.49,1.71,1.24,2.46s1.78,1.13,3.09,1.13c1.15,0,2.24-0.29,3.26-0.87
		c1.02-0.58,1.97-1.33,2.86-2.25L611.18,348.73z M582.11,359.88c0,1,0.19,1.79,0.58,2.37c0.38,0.58,0.96,0.87,1.73,0.87
		c1.04,0,2.07-0.28,3.09-0.84c1.02-0.56,2-1.29,2.95-2.2c0.95-0.91,1.82-1.94,2.63-3.09c0.81-1.16,1.51-2.35,2.11-3.58
		c0.6-1.23,1.07-2.44,1.41-3.61c0.35-1.18,0.52-2.24,0.52-3.21c0-0.81-0.2-1.49-0.61-2.05c-0.41-0.56-1.03-0.84-1.88-0.84
		c-0.81,0-1.68,0.26-2.6,0.78c-0.92,0.52-1.86,1.2-2.8,2.05c-0.95,0.85-1.84,1.83-2.69,2.95c-0.85,1.12-1.61,2.27-2.28,3.47
		c-0.67,1.2-1.2,2.39-1.59,3.58C582.3,357.73,582.11,358.84,582.11,359.88z M622.1,343.47l-7.34,10.69l0.12,0.12
		c0.54-0.65,1.22-1.42,2.05-2.28c0.83-0.87,1.73-1.75,2.72-2.66c0.98-0.9,2.01-1.8,3.09-2.69c1.08-0.89,2.14-1.68,3.18-2.37
		c0.19-0.38,0.4-0.69,0.64-0.92c0.23-0.23,0.69-0.35,1.39-0.35c0.42,0,0.8,0.01,1.13,0.03c0.33,0.02,0.66,0.05,1.01,0.09
		c-0.66,0.66-1.29,1.45-1.91,2.4c-0.62,0.94-0.92,1.97-0.92,3.09c0,0.89,0.22,1.58,0.66,2.08c0.44,0.5,0.99,0.75,1.65,0.75
		c0.58,0,1.15-0.11,1.7-0.35c0.56-0.23,1.09-0.52,1.59-0.87c0.5-0.35,0.98-0.71,1.44-1.1c0.46-0.39,0.87-0.73,1.21-1.04l0.35,0.23
		c-0.39,0.39-0.83,0.8-1.33,1.24c-0.5,0.44-1.04,0.86-1.62,1.24c-0.58,0.39-1.2,0.7-1.85,0.95c-0.66,0.25-1.33,0.38-2.02,0.38
		c-1.23,0-2.23-0.38-2.98-1.13c-0.75-0.75-1.13-1.8-1.13-3.15c0-0.92,0.21-1.75,0.64-2.48l-0.12-0.12c-1.58,1.08-3.31,2.5-5.2,4.25
		c-1.89,1.75-3.89,3.82-6.01,6.21c-0.77,0.85-1.57,1.96-2.4,3.35c-0.83,1.39-1.55,2.81-2.17,4.28h-3.76
		c2.08-3.31,4.16-6.61,6.24-9.88s4.22-6.61,6.42-10H622.1z M646.54,343.47l-7.63,10.58l0.12,0.12c0.81-0.96,1.75-2.09,2.83-3.38
		c1.08-1.29,2.23-2.51,3.47-3.67c1.23-1.16,2.51-2.13,3.84-2.92c1.33-0.79,2.65-1.19,3.96-1.19c1.16,0,2.05,0.32,2.69,0.95
		c0.64,0.64,0.95,1.45,0.95,2.46c0,0.62-0.22,1.35-0.66,2.2c-0.44,0.85-0.99,1.75-1.65,2.72c-0.66,0.96-1.37,1.95-2.14,2.95
		c-0.77,1-1.48,1.96-2.14,2.86c-0.66,0.91-1.2,1.73-1.65,2.48c-0.44,0.75-0.66,1.38-0.66,1.88c0,1.08,0.54,1.62,1.62,1.62
		c1.23,0,2.54-0.41,3.93-1.24c1.39-0.83,3.04-2.23,4.97-4.19c0.77-0.77,1.55-1.62,2.34-2.54c0.79-0.92,1.55-1.84,2.28-2.74
		c0.73-0.9,1.4-1.76,1.99-2.57c0.6-0.81,1.07-1.48,1.42-2.02l0.4,0.23c-0.77,1.16-1.76,2.53-2.98,4.13
		c-1.21,1.6-2.53,3.17-3.96,4.71c-0.85,0.92-1.71,1.81-2.6,2.66c-0.89,0.85-1.77,1.59-2.66,2.23c-0.89,0.64-1.76,1.14-2.63,1.5
		c-0.87,0.37-1.72,0.55-2.57,0.55c-1.12,0-2.04-0.31-2.77-0.92c-0.73-0.62-1.1-1.46-1.1-2.54c0-1.16,0.46-2.42,1.39-3.79
		c0.92-1.37,1.94-2.74,3.06-4.13c1.12-1.39,2.14-2.72,3.06-3.99c0.92-1.27,1.39-2.39,1.39-3.35c0-0.46-0.16-0.81-0.46-1.04
		c-0.31-0.23-0.71-0.35-1.21-0.35c-0.96,0-2.04,0.36-3.24,1.07c-1.2,0.71-2.42,1.66-3.67,2.83c-1.25,1.18-2.5,2.48-3.76,3.93
		c-1.25,1.44-2.42,2.89-3.5,4.33c-1.08,1.44-2.04,2.83-2.89,4.16c-0.85,1.33-1.48,2.44-1.91,3.32h-3.58c1-1.7,2.07-3.42,3.21-5.17
		c1.14-1.75,2.26-3.49,3.38-5.2c1.12-1.71,2.19-3.37,3.21-4.97c1.02-1.6,1.94-3.05,2.75-4.36L646.54,343.47z"/>
</g>
<g id="text" class="st0">
	
		<text transform="matrix(1 0 0 1 -263.9048 261.2751)" style="display:inline; font-family:'YuMin-Extrabold-83pv-RKSJ-H'; font-size:60px; letter-spacing:5;">NABO</text>
	
		<text transform="matrix(1 0 0 1 -224.478 306.0738)" style="display:inline; font-family:'SnellRoundhand'; font-size:40px; letter-spacing:3;">reborn</text>
</g>
</svg>
