<svg xmlns="http://www.w3.org/2000/svg" viewBox="0 0 39.88 22.58"><title>アセット 1</title><g id="レイヤー_2" data-name="レイヤー 2"><g id="文字情報"><path d="M39.87,17.09a5.56,5.56,0,0,1-.52,2.69A4.64,4.64,0,0,1,37.09,22a11.55,11.55,0,0,1-4,.58l-1,0H25.51c-.44,0-.88,0-1.22,0a.2.2,0,0,1-.19-.19c0-.21,0-1,0-1.83,0-.55,0-1.08,0-1.38s0-.59,0-.95V7.4c0-.19,0-.36,0-.54s0-.41,0-.64,0-.78,0-1.14V5a.2.2,0,0,1,.17-.2H32.4c.38,0,.85,0,1.28,0a8.8,8.8,0,0,1,1,.07,4.48,4.48,0,0,1,3.1,1.64,5,5,0,0,1,.84,1.92,4,4,0,0,1,.06,1.16,4.33,4.33,0,0,1-.41,1.49A3.35,3.35,0,0,1,37,12.4h0l-.17.08c.2.1.4.21.65.36a5.31,5.31,0,0,1,1.85,2.06,5.19,5.19,0,0,1,.51,1.8v0s0,.11,0,.18A1.15,1.15,0,0,1,39.87,17.09ZM27.57,19.6h.3l1.41,0,1.59,0c.46,0,.86,0,1.43,0h.35a6.86,6.86,0,0,0,.81,0,3,3,0,0,0,2.34-1.16,3,3,0,0,0,.41-1.12A2.45,2.45,0,0,0,36,15.76a2.8,2.8,0,0,0-.81-.95,1.06,1.06,0,0,0-.2-.12,4.28,4.28,0,0,0-1.21-.36c-.76-.08-1.91-.09-2.71-.09H27.55c0,.27,0,.67,0,.88v.23c0,.67,0,2.44,0,2.9V19.6ZM34.94,9c-.45-1.19-1.48-1.3-3.13-1.36h-.53l-2.79,0h-.9c0,.1,0,.2,0,.29v.54c0,.37,0,.71,0,1.1,0,.22,0,.45,0,.71s0,.64,0,.91h4.11a7.69,7.69,0,0,0,2.17-.23,1.72,1.72,0,0,0,.69-.4.78.78,0,0,0,.15-.16l0-.07A1.37,1.37,0,0,0,35,10,2.28,2.28,0,0,0,34.94,9ZM19,4.9a.18.18,0,0,0-.17-.11H15.17a.18.18,0,0,0-.15.08,41.32,41.32,0,0,0-3.43,6,47.18,47.18,0,0,0-2.08,5.26,51.4,51.4,0,0,0-2.08-5.26A42.26,42.26,0,0,0,4,4.87a.21.21,0,0,0-.16-.08H.19A.18.18,0,0,0,0,4.9a.22.22,0,0,0,0,.21,35.92,35.92,0,0,1,4.4,7.21A46.9,46.9,0,0,1,7.78,22.43a.19.19,0,0,0,.19.15h3.08a.19.19,0,0,0,.19-.15,46.69,46.69,0,0,1,3.34-10.11A36.35,36.35,0,0,1,19,5.11.22.22,0,0,0,19,4.9ZM6.87,2.33A1.17,1.17,0,1,0,5.72,1.17,1.16,1.16,0,0,0,6.87,2.33Zm5.28,0A1.17,1.17,0,1,0,11,1.17,1.16,1.16,0,0,0,12.15,2.33ZM28,2.33a1.15,1.15,0,0,0,1.15-1.16,1.15,1.15,0,1,0-2.29,0A1.15,1.15,0,0,0,28,2.33Zm5.29,0a1.15,1.15,0,0,0,1.14-1.16,1.15,1.15,0,1,0-2.29,0A1.15,1.15,0,0,0,33.25,2.33Z"/></g></g></svg>